<svg width="35" height="35" viewBox="0 0 35 35" fill="none" xmlns="http://www.w3.org/2000/svg">
<g clip-path="url(#clip0_79_1207)">
<path d="M1.83588 9.61843C2.75383 7.82356 3.95424 6.2588 5.41355 4.87813C7.39069 3.01422 9.69734 1.65656 12.3335 0.828161C14.8285 0.0457811 17.394 -0.161319 20.0067 0.114815C22.9253 0.436971 25.585 1.42645 27.9623 3.10627C28.5978 3.54348 29.1862 4.04973 29.7747 4.50995C28.0565 6.18977 26.4088 7.82356 24.7377 9.43434C24.3376 9.1352 23.961 8.81304 23.5373 8.53691C21.5837 7.22527 19.3947 6.673 17.0645 6.8801C13.0396 7.22527 10.1681 9.27326 8.2851 12.7249C8.04973 13.1622 7.88497 13.6224 7.69667 14.0826C7.20239 13.7144 6.7081 13.3462 6.21382 12.9551C5.29586 12.2647 4.37791 11.5514 3.45995 10.861C3.01274 10.5159 2.542 10.1707 2.07125 9.84854C1.9771 9.77951 1.90649 9.68746 1.83588 9.61843Z" fill="#C34030"/>
<path d="M7.67313 20.917C8.02619 21.6303 8.30864 22.3667 8.70878 23.011C10.4976 25.8414 13.0632 27.6132 16.4526 28.0505C19.0652 28.3956 21.5602 27.9354 23.8433 26.5317C23.9139 26.4857 23.961 26.4627 24.0316 26.4397C24.3846 26.7158 24.7377 26.9689 25.0908 27.2451C25.5144 27.5672 25.9146 27.9124 26.3382 28.2345C27.0208 28.7408 27.7034 29.224 28.386 29.7303C28.8097 30.0524 29.2333 30.3976 29.6805 30.7198C28.9273 31.4561 28.0565 32.0544 27.1385 32.5837C24.008 34.4015 20.5951 35.0919 16.9704 34.9308C13.4633 34.7927 10.2622 33.6882 7.41422 31.7092C5.01342 30.0294 3.15397 27.9124 1.83588 25.3351C1.88295 25.2661 1.93003 25.1971 1.9771 25.128H2.00064H2.02418C2.07125 25.105 2.14186 25.082 2.18894 25.059C2.94213 24.5067 3.69533 23.9545 4.44852 23.3792C5.48416 22.5968 6.56688 21.7454 7.67313 20.917Z" fill="#62A053"/>
<path d="M29.657 30.7661C29.2334 30.4439 28.8097 30.0987 28.3625 29.7766C27.6799 29.2703 26.9973 28.7871 26.3147 28.2808C25.8911 27.9587 25.4909 27.6135 25.0673 27.2914C24.7142 27.0152 24.3611 26.7391 24.0081 26.486C24.7377 25.9567 25.4203 25.3814 25.9617 24.6681C26.7619 23.6096 27.3033 22.436 27.5622 21.0784C27.1385 21.0784 26.7149 21.0784 26.3147 21.0784C26.197 21.0323 26.1029 20.9863 25.9852 20.9863C23.3726 20.9863 20.7835 20.9863 18.1708 20.9863C18.0296 20.9173 17.8884 20.9403 17.8884 20.7102C17.8884 18.5701 17.8884 16.4301 17.8884 14.2901C17.959 14.2901 18.0061 14.2901 18.0767 14.2901C23.4903 14.2901 28.9038 14.2901 34.2939 14.2901H34.3174C34.5057 14.267 34.5999 14.3131 34.5999 14.5202C34.5999 14.5892 34.6705 14.6352 34.694 14.7043C34.9294 16.0389 35 17.3966 34.9529 18.7542C34.8823 20.2499 34.6705 21.7227 34.2703 23.1724C33.4465 26.0948 31.9872 28.626 29.7276 30.72C29.7276 30.743 29.7041 30.743 29.657 30.7661Z" fill="#557CE6"/>
<path d="M7.67314 20.917C6.59043 21.7454 5.50771 22.5738 4.40146 23.4022C3.64826 23.9775 2.89507 24.5298 2.14187 25.082C2.0948 25.1281 2.02419 25.1281 1.97711 25.1511L1.95358 25.1281C1.95358 25.1511 1.95358 25.1511 1.95358 25.1741H1.93004C1.55344 24.8979 1.43575 24.4607 1.27099 24.0695C1.08269 23.6093 0.965008 23.1261 0.800247 22.6659C0.611948 22.1366 0.353038 21.6534 0.376575 21.0781C0.376575 21.0551 0.376575 21.0321 0.376575 21.0091C0.305963 20.5949 0.235351 20.2037 0.164739 19.7895C0.164739 19.7434 0.164739 19.6744 0.164739 19.6284C0.0941271 19.2142 -0.0235596 18.777 -0.0235596 18.3628C-2.22456e-05 17.6954 -0.0235596 17.0051 0.0705897 16.3378C0.164739 15.7165 0.117664 15.0952 0.305963 14.4969C0.447187 13.9446 0.494262 13.3693 0.659023 12.8171C0.800247 12.2648 1.03562 11.7586 1.22392 11.2293C1.29453 11.0452 1.41222 10.8841 1.50637 10.7C1.60052 10.4929 1.64759 10.2628 1.74174 10.0557C1.78881 9.96369 1.93004 9.91767 2.04772 9.84863C2.51847 10.1938 2.96568 10.516 3.43643 10.8611C4.35438 11.5515 5.27234 12.2648 6.19029 12.9551C6.68458 13.3233 7.17886 13.6915 7.67314 14.0827C7.55546 14.5889 7.41424 15.1182 7.29655 15.6244C7.06118 16.6369 7.03764 17.6494 7.17886 18.6849C7.29655 19.4213 7.50838 20.1807 7.67314 20.917Z" fill="#DEB22B"/>
<path d="M17.9119 14.2897C17.9119 16.4297 17.9119 18.5698 17.9119 20.7098C17.9119 20.9399 18.0531 20.9169 18.1943 20.9169C20.807 20.9169 23.3961 20.9169 26.0087 20.9169C26.1264 20.9169 26.2205 20.9859 26.3382 21.0089C26.1028 21.0089 25.8439 21.0089 25.6086 21.0319C23.1136 21.0319 20.6187 21.0319 18.1237 21.0319C18.0295 21.0319 17.9354 21.0319 17.8648 21.0089C17.8648 19.053 17.8648 17.074 17.8648 15.1181C17.8648 14.8189 17.8648 14.5428 17.8412 14.2437C17.8648 14.2667 17.8883 14.2667 17.9119 14.2897Z" fill="#5775C0"/>
<path d="M17.9119 14.2897C17.8883 14.2667 17.8648 14.2667 17.8412 14.2667C17.9354 14.2437 18.0531 14.2207 18.1472 14.2207C23.5137 14.2207 28.8803 14.2207 34.2468 14.2207C34.7175 14.2207 34.7175 14.2207 34.741 14.7039C34.7175 14.6349 34.6469 14.5889 34.6469 14.5198C34.6704 14.3127 34.5527 14.2667 34.3644 14.2897H34.3409C28.9273 14.2897 23.5137 14.2897 18.1237 14.2897C18.0295 14.2897 17.9825 14.2897 17.9119 14.2897Z" fill="#6E86BF"/>
<path d="M17.8413 14.2671C17.8413 14.5662 17.8648 14.8424 17.8648 15.1415C17.8648 17.0975 17.8648 19.0764 17.8648 21.0324C17.8413 20.9633 17.8177 20.8943 17.8177 20.8253C17.8177 18.7082 17.8177 16.5912 17.8177 14.4972C17.7942 14.4052 17.8177 14.3361 17.8413 14.2671Z" fill="#6E86BF"/>
</g>
<defs>
<clipPath id="clip0_79_1207">
<rect width="35" height="35" fill="white"/>
</clipPath>
</defs>
</svg>
